<svg xmlns="http://www.w3.org/2000/svg" version="1.0" width="514pt" height="514pt" viewBox="0 0 514 514" preserveAspectRatio="xMidYMid meet">
<g fill="#0159E0FE">
<path d="M 208.24 433.50 C 208.65 433.05 208.48 432.08 207.86 431.33 C 207.21 430.55 206.99 428.45 207.33 426.33 C 207.78 423.57 207.51 422.37 206.25 421.44 C 204.90 420.45 204.79 419.76 205.67 417.82 C 206.59 415.81 206.38 414.98 204.37 412.64 C 203.05 411.11 202.23 409.44 202.55 408.92 C 203.05 408.12 202.24 404.74 200.18 399.00 C 199.88 398.18 199.56 396.72 199.46 395.77 C 199.14 392.74 197.16 391.32 189.23 388.47 C 184.98 386.94 178.88 384.39 175.68 382.80 C 167.65 378.80 156.19 367.24 152.59 359.50 C 149.77 353.46 147.00 342.62 147.08 338.00 C 147.12 335.73 147.20 335.68 147.94 337.50 C 149.24 340.68 158.70 348.08 164.09 350.13 C 169.78 352.29 176.91 352.48 182.15 350.61 C 184.16 349.89 190.01 346.69 195.15 343.50 C 200.29 340.32 207.20 336.03 210.50 333.98 C 213.80 331.94 222.35 326.66 229.50 322.26 C 236.65 317.86 249.03 310.22 257.00 305.27 C 277.19 292.77 286.06 287.93 287.34 288.71 C 287.80 289.00 287.95 290.07 287.68 291.11 C 287.31 292.55 287.72 293.00 289.42 293.00 C 291.34 293.00 291.59 293.43 291.21 296.05 C 290.92 298.01 291.29 299.53 292.26 300.30 C 293.09 300.96 294.02 302.62 294.33 304.00 C 295.53 309.36 296.80 313.44 296.90 312.25 C 297.02 310.73 300.00 310.56 300.00 312.07 C 300.00 312.66 300.68 313.82 301.50 314.64 C 302.32 315.47 303.00 317.45 303.00 319.05 C 303.00 321.34 303.55 322.10 305.55 322.60 C 307.21 323.02 307.98 323.81 307.76 324.87 C 307.58 325.77 308.08 327.00 308.87 327.60 C 310.11 328.55 310.05 329.07 308.41 331.33 C 307.36 332.77 305.70 334.22 304.73 334.55 C 303.75 334.88 300.27 337.64 296.98 340.68 C 291.82 345.46 291.10 346.56 291.64 348.85 C 291.98 350.31 292.65 351.93 293.13 352.45 C 293.61 352.97 294.00 355.08 294.00 357.14 C 294.00 361.27 295.75 363.20 297.18 360.64 C 297.69 359.74 298.58 359.00 299.17 359.00 C 299.87 359.00 299.81 359.61 299.00 360.75 C 296.39 364.40 306.40 353.12 313.42 344.50 C 326.79 328.07 339.57 306.47 344.56 291.84 C 349.68 276.82 351.24 260.20 348.61 248.50 C 342.80 222.58 339.78 218.41 313.41 199.94 C 303.64 193.10 290.20 183.68 283.54 179.00 C 276.87 174.32 265.91 166.68 259.16 162.00 C 252.42 157.32 241.32 149.45 234.49 144.50 C 227.67 139.55 217.45 132.25 211.79 128.28 C 206.13 124.32 194.15 115.87 185.17 109.51 C 146.75 82.34 142.15 79.60 127.00 74.86 C 120.50 72.83 117.44 72.52 104.00 72.51 C 93.02 72.50 87.54 72.90 85.22 73.88 C 83.41 74.65 81.71 75.04 81.43 74.76 C 80.61 73.95 93.20 65.00 95.16 65.00 C 96.15 65.00 100.00 63.60 103.72 61.90 C 126.57 51.44 146.08 47.50 163.11 49.91 C 182.94 52.71 196.89 59.42 220.50 77.50 C 242.64 94.46 256.15 104.91 273.00 118.11 C 283.18 126.08 314.68 150.63 343.02 172.67 C 372.10 195.28 397.05 215.44 400.30 218.96 C 410.20 229.65 414.97 241.31 414.99 254.85 C 415.01 270.24 410.94 279.71 395.23 300.81 C 392.24 304.84 390.08 308.42 390.44 308.77 C 391.49 309.83 404.58 295.54 409.59 287.86 C 417.99 274.99 420.76 265.95 421.07 250.33 C 421.25 241.54 421.31 241.35 424.07 240.13 C 425.87 239.33 426.69 238.36 426.34 237.44 C 426.03 236.65 426.25 236.00 426.81 236.00 C 427.37 236.00 427.99 236.48 428.19 237.06 C 428.38 237.64 429.31 237.82 430.26 237.45 C 431.22 237.09 431.68 236.28 431.30 235.65 C 430.90 234.98 431.28 235.04 432.21 235.79 C 433.56 236.88 434.23 236.69 436.51 234.57 C 438.00 233.19 440.07 231.79 441.11 231.46 C 443.28 230.78 443.58 229.43 441.75 228.60 C 441.06 228.28 442.41 228.28 444.74 228.60 C 448.76 229.14 449.23 228.93 453.67 224.49 C 457.73 220.43 458.78 219.87 461.50 220.31 C 463.86 220.69 464.93 220.35 465.83 218.91 C 466.48 217.86 467.83 217.00 468.83 217.00 C 471.56 217.00 475.13 212.82 473.97 210.98 C 473.45 210.17 473.04 208.82 473.06 208.00 C 473.10 205.23 476.33 212.44 478.17 219.43 C 483.40 239.27 477.80 261.73 464.12 275.79 C 457.13 282.97 455.90 283.81 421.00 304.95 C 405.32 314.45 389.80 323.91 386.50 325.98 C 377.45 331.66 355.34 345.25 351.71 347.37 C 349.94 348.40 340.62 354.07 331.00 359.98 C 321.38 365.88 310.12 372.78 306.00 375.30 C 301.88 377.82 294.90 382.09 290.50 384.80 C 230.53 421.61 205.68 436.33 208.24 433.50Z"/></g>
<g fill="#02B0F0FE">
<path d="M 137.00 456.39 C 126.79 453.65 121.00 450.29 113.96 443.03 C 109.27 438.19 107.25 435.34 107.25 433.57 C 107.25 432.17 107.69 431.31 108.23 431.64 C 108.84 432.02 108.94 431.38 108.49 429.97 C 107.91 428.14 108.08 427.82 109.38 428.32 C 111.67 429.19 111.39 428.13 108.77 426.02 C 106.73 424.36 106.66 424.00 107.96 421.57 C 109.10 419.44 109.15 418.29 108.19 415.64 C 106.74 411.64 106.63 406.00 108.00 406.00 C 109.79 406.00 109.17 395.85 107.25 393.73 C 105.86 392.19 105.42 389.43 105.09 380.15 C 104.84 372.90 104.40 369.44 103.94 371.00 C 103.33 373.06 103.18 372.76 103.10 369.25 C 102.97 363.86 101.22 363.68 100.81 369.02 C 100.45 373.67 98.65 374.82 98.18 370.69 C 97.63 365.92 95.56 368.29 94.36 375.07 C 93.47 380.09 93.22 359.97 93.24 283.50 C 93.26 229.60 93.47 186.52 93.71 187.76 C 94.37 191.20 95.73 189.54 95.20 185.94 C 94.88 183.72 94.49 183.19 93.89 184.15 C 93.31 185.07 93.03 184.49 93.02 182.37 C 93.00 180.21 93.55 179.09 94.75 178.78 C 97.63 178.03 99.00 179.01 99.02 181.83 C 99.02 183.30 99.47 185.18 100.00 186.00 C 100.76 187.18 100.97 186.94 100.98 184.89 C 101.00 182.64 101.35 182.34 103.51 182.76 C 104.90 183.02 106.27 183.64 106.57 184.12 C 106.87 184.60 108.39 185.00 109.94 185.00 C 111.49 185.00 113.32 185.68 114.00 186.50 C 114.68 187.32 116.08 188.00 117.10 188.00 C 119.12 188.00 133.36 201.42 134.32 204.22 C 134.68 205.26 134.27 206.31 133.29 206.86 C 131.91 207.63 132.16 208.03 134.83 209.41 L 138.00 211.05 L 138.06 207.28 C 138.12 204.13 138.27 203.86 138.99 205.65 C 139.47 206.83 140.34 208.09 140.93 208.46 C 141.52 208.82 142.00 210.24 142.00 211.62 C 142.00 213.03 142.44 213.85 143.00 213.50 C 143.55 213.16 144.00 213.81 144.00 214.94 C 144.00 216.07 144.43 217.00 144.95 217.00 C 145.54 217.00 146.04 240.64 146.27 278.75 C 146.66 346.04 146.73 346.94 152.59 359.50 C 156.19 367.24 167.65 378.80 175.68 382.80 C 178.88 384.39 184.98 386.94 189.23 388.47 C 197.16 391.32 199.14 392.74 199.46 395.77 C 199.56 396.72 199.88 398.18 200.18 399.00 C 202.24 404.74 203.05 408.12 202.55 408.92 C 202.23 409.44 203.05 411.11 204.37 412.64 C 206.38 414.98 206.59 415.81 205.67 417.82 C 204.78 419.77 204.90 420.45 206.29 421.47 C 207.56 422.40 207.84 423.54 207.38 425.83 C 207.04 427.54 207.11 429.74 207.53 430.72 C 207.96 431.70 208.41 433.02 208.55 433.65 C 208.82 434.94 186.47 448.57 177.77 452.42 C 165.43 457.88 148.63 459.51 137.00 456.39Z"/></g>
<g fill="#02B0F0FE">
<path d="M 390.00 308.46 C 390.00 308.13 392.40 304.62 395.34 300.68 C 410.93 279.71 415.01 270.21 414.99 254.85 C 414.97 241.33 410.20 229.65 400.35 219.01 C 397.20 215.61 378.40 200.22 358.56 184.81 C 338.73 169.40 321.67 155.71 320.67 154.40 C 319.66 153.08 318.28 152.00 317.60 152.00 C 316.41 152.00 311.70 148.42 273.00 118.09 C 262.82 110.12 250.66 100.65 245.97 97.05 C 241.28 93.45 236.78 89.93 235.97 89.24 C 235.16 88.55 229.32 84.11 223.00 79.38 C 216.68 74.65 211.01 70.16 210.40 69.41 C 209.80 68.65 209.08 68.25 208.81 68.53 C 208.54 68.80 207.11 67.90 205.63 66.54 C 204.16 65.17 202.63 64.03 202.23 64.01 C 201.83 63.99 201.49 63.42 201.47 62.74 C 201.42 60.12 199.43 58.60 190.61 54.43 C 177.97 48.46 169.19 46.55 154.50 46.60 C 142.60 46.63 130.44 48.85 121.25 52.68 C 117.48 54.24 117.02 55.01 120.25 54.35 C 121.55 54.09 121.08 54.55 119.14 55.45 C 115.29 57.22 113.80 57.45 116.00 55.93 C 117.23 55.08 117.14 54.96 115.50 55.26 C 114.40 55.46 113.63 56.21 113.79 56.93 C 113.98 57.79 113.50 58.02 112.39 57.60 C 111.33 57.19 109.98 57.72 108.79 59.00 C 107.74 60.12 106.41 60.75 105.83 60.39 C 105.25 60.04 104.39 60.36 103.92 61.12 C 103.46 61.88 102.72 62.54 102.29 62.58 C 101.85 62.63 100.20 63.20 98.61 63.86 C 94.09 65.73 94.38 64.42 99.16 61.38 C 113.71 52.13 131.26 44.80 148.45 40.81 C 160.91 37.92 189.38 36.95 190.32 39.39 C 190.66 40.27 190.51 41.00 189.99 41.00 C 189.41 41.00 189.40 41.92 189.96 43.40 C 190.46 44.72 190.60 46.07 190.27 46.40 C 189.94 46.73 190.75 47.01 192.08 47.02 C 195.19 47.04 197.63 48.49 196.12 49.43 C 194.64 50.34 197.03 52.93 198.74 52.27 C 200.34 51.66 200.37 53.23 198.80 54.80 C 197.93 55.67 197.91 56.00 198.75 56.00 C 199.38 56.00 204.31 59.49 209.70 63.75 C 215.09 68.01 222.10 73.53 225.27 76.00 C 228.44 78.47 232.76 81.85 234.87 83.50 C 257.36 101.14 281.58 119.34 289.00 124.19 C 292.02 126.16 295.34 128.72 296.38 129.86 C 297.80 131.44 298.69 131.70 300.06 130.97 C 302.73 129.54 303.35 129.79 301.56 131.58 C 299.55 133.59 299.91 134.10 305.18 136.74 C 307.55 137.93 310.32 139.86 311.31 141.04 C 312.33 142.24 313.77 142.92 314.61 142.59 C 315.43 142.28 315.85 142.44 315.54 142.94 C 315.22 143.45 315.42 144.14 315.98 144.49 C 317.61 145.49 317.16 142.30 315.43 140.57 C 314.56 139.71 313.23 139.00 312.46 139.00 C 311.70 139.00 310.59 138.10 310.00 137.00 C 308.95 135.04 310.27 134.01 311.43 135.89 C 311.73 136.37 313.60 137.08 315.59 137.45 C 318.58 138.01 319.11 138.47 318.67 140.14 C 318.26 141.73 318.50 142.01 319.82 141.47 C 322.71 140.28 324.45 140.45 324.48 141.92 C 324.49 142.70 325.06 143.52 325.75 143.75 C 326.44 143.98 327.00 143.68 327.00 143.08 C 327.00 142.49 327.68 142.00 328.50 142.00 C 329.44 142.00 330.00 142.95 330.00 144.56 C 330.00 146.13 330.41 146.86 331.08 146.45 C 332.40 145.63 344.00 148.10 344.00 149.21 C 344.00 149.64 347.46 150.00 351.68 150.00 C 355.90 150.00 360.74 150.44 362.43 150.98 C 364.12 151.51 368.20 152.25 371.50 152.62 C 377.20 153.25 377.34 153.33 374.25 154.17 C 370.14 155.29 370.12 156.50 374.18 157.91 C 377.48 159.06 384.00 158.41 384.00 156.94 C 384.00 155.68 394.16 157.03 396.71 158.62 C 397.93 159.38 399.62 160.00 400.46 160.00 C 401.31 160.00 402.00 160.62 402.00 161.37 C 402.00 162.35 403.61 162.77 407.70 162.87 C 410.83 162.94 413.85 163.45 414.40 164.00 C 414.95 164.55 416.29 165.00 417.37 165.00 C 418.46 165.00 420.23 165.79 421.32 166.75 C 422.75 168.02 423.41 168.16 423.73 167.26 C 424.05 166.34 424.56 166.42 425.73 167.58 C 427.00 168.85 427.45 168.90 428.13 167.82 C 428.89 166.63 429.41 167.36 429.13 169.21 C 429.07 169.61 429.77 169.64 430.68 169.29 C 431.70 168.90 432.08 169.06 431.68 169.72 C 430.79 171.15 433.62 173.36 435.43 172.66 C 437.13 172.01 454.60 183.35 460.36 188.83 C 465.65 193.87 474.00 205.85 473.36 207.49 C 473.08 208.24 473.31 209.72 473.88 210.78 C 474.71 212.33 474.47 213.15 472.65 214.86 C 471.40 216.04 469.62 217.00 468.69 217.00 C 467.77 217.00 466.48 217.86 465.83 218.91 C 464.93 220.35 463.86 220.69 461.50 220.31 C 458.78 219.87 457.73 220.43 453.67 224.49 C 449.23 228.93 448.76 229.14 444.74 228.60 C 442.41 228.28 441.06 228.28 441.75 228.60 C 443.58 229.43 443.28 230.78 441.11 231.46 C 440.07 231.79 438.00 233.19 436.51 234.57 C 434.23 236.69 433.56 236.88 432.21 235.79 C 431.28 235.04 430.90 234.98 431.30 235.65 C 431.68 236.28 431.22 237.09 430.26 237.45 C 429.31 237.82 428.38 237.64 428.19 237.06 C 427.99 236.48 427.37 236.00 426.81 236.00 C 426.25 236.00 426.03 236.65 426.34 237.44 C 426.69 238.36 425.87 239.33 424.07 240.13 C 421.31 241.35 421.25 241.54 421.07 250.33 C 420.76 265.89 417.97 275.05 409.73 287.61 C 403.06 297.78 390.00 311.58 390.00 308.46ZM 417.53 265.22 C 422.48 246.20 414.18 224.59 396.21 209.73 C 379.03 195.53 351.02 174.98 348.91 175.04 C 348.03 175.06 348.27 175.53 349.56 176.29 C 350.69 176.95 352.49 178.30 353.56 179.28 C 354.63 180.26 359.10 183.83 363.50 187.22 C 367.90 190.60 374.43 195.69 378.00 198.51 C 381.57 201.34 387.22 205.71 390.54 208.23 C 401.03 216.16 408.08 225.20 413.20 237.28 C 415.93 243.72 416.27 245.64 416.35 255.00 C 416.41 262.37 415.93 267.12 414.72 270.93 C 413.77 273.92 413.04 276.62 413.08 276.93 C 413.26 278.15 416.14 270.57 417.53 265.22Z"/></g>
<g fill="#0159E0FE">
<path d="M 425.65 167.51 C 424.53 166.39 424.05 166.32 423.73 167.26 C 423.41 168.16 422.75 168.02 421.32 166.75 C 420.23 165.79 418.46 165.00 417.37 165.00 C 416.29 165.00 414.95 164.55 414.40 164.00 C 413.85 163.45 410.83 162.94 407.70 162.87 C 403.61 162.77 402.00 162.35 402.00 161.37 C 402.00 160.62 401.31 160.00 400.46 160.00 C 399.62 160.00 397.93 159.38 396.71 158.62 C 394.16 157.03 384.00 155.68 384.00 156.94 C 384.00 158.41 377.48 159.06 374.18 157.91 C 370.12 156.50 370.14 155.29 374.25 154.17 C 377.34 153.33 377.20 153.25 371.50 152.62 C 368.20 152.25 364.12 151.51 362.43 150.98 C 360.74 150.44 355.90 150.00 351.68 150.00 C 347.46 150.00 344.00 149.64 344.00 149.21 C 344.00 148.10 332.40 145.63 331.08 146.45 C 330.41 146.86 330.00 146.13 330.00 144.56 C 330.00 142.95 329.44 142.00 328.50 142.00 C 327.68 142.00 327.00 142.49 327.00 143.08 C 327.00 143.68 326.44 143.98 325.75 143.75 C 325.06 143.52 324.49 142.70 324.48 141.92 C 324.45 140.45 322.71 140.28 319.82 141.47 C 318.50 142.01 318.26 141.73 318.67 140.14 C 319.11 138.47 318.58 138.01 315.59 137.45 C 313.60 137.08 311.73 136.37 311.43 135.89 C 310.27 134.01 308.95 135.04 310.00 137.00 C 310.59 138.10 311.70 139.00 312.46 139.00 C 313.23 139.00 314.56 139.71 315.43 140.57 C 317.16 142.30 317.61 145.49 315.98 144.49 C 315.42 144.14 315.22 143.45 315.54 142.94 C 315.85 142.44 315.43 142.28 314.61 142.59 C 313.77 142.92 312.33 142.24 311.31 141.04 C 310.32 139.86 307.55 137.93 305.18 136.74 C 299.91 134.10 299.55 133.59 301.56 131.58 C 303.35 129.79 302.73 129.54 300.06 130.97 C 298.69 131.70 297.80 131.44 296.38 129.86 C 295.34 128.72 292.02 126.16 289.00 124.19 C 281.58 119.34 257.36 101.14 234.87 83.50 C 232.76 81.85 228.44 78.47 225.27 76.00 C 222.10 73.53 215.09 68.01 209.70 63.75 C 204.31 59.49 199.38 56.00 198.75 56.00 C 197.91 56.00 197.93 55.67 198.80 54.80 C 200.37 53.23 200.34 51.66 198.74 52.27 C 197.03 52.93 194.64 50.34 196.12 49.43 C 197.63 48.49 195.19 47.04 192.08 47.02 C 190.75 47.01 189.94 46.73 190.27 46.40 C 190.60 46.07 190.46 44.72 189.96 43.40 C 189.40 41.92 189.41 41.00 189.99 41.00 C 190.51 41.00 190.68 40.33 190.36 39.50 C 190.05 38.67 190.23 38.00 190.76 38.00 C 194.68 38.00 211.16 41.58 219.00 44.14 C 233.63 48.91 240.34 52.57 288.50 81.99 C 302.25 90.39 316.88 99.31 321.00 101.81 C 325.12 104.31 338.85 112.72 351.50 120.50 C 364.15 128.27 377.65 136.51 381.50 138.80 C 388.92 143.22 402.77 151.68 418.48 161.39 C 423.71 164.62 428.00 167.66 428.00 168.14 C 428.00 169.38 427.35 169.21 425.65 167.51Z"/></g>
<g fill="#02B0F0FE">
<path d="M 179.56 307.22 C 179.25 306.92 179.00 285.13 179.00 258.80 L 179.00 210.93 L 182.03 207.97 C 183.70 206.33 185.73 205.00 186.53 205.00 C 187.34 205.00 188.00 204.55 188.00 203.99 C 188.00 203.44 189.35 201.57 191.00 199.84 C 194.59 196.08 194.70 195.22 191.75 194.03 C 190.51 193.53 189.89 193.10 190.37 193.06 C 190.85 193.03 190.63 192.25 189.87 191.32 C 189.12 190.40 191.20 191.39 194.50 193.52 C 197.80 195.65 206.80 201.33 214.50 206.14 C 244.26 224.72 242.15 223.15 240.57 225.45 C 239.79 226.58 238.64 227.38 238.01 227.23 C 237.37 227.07 237.07 227.31 237.35 227.75 C 237.62 228.19 236.08 231.01 233.93 234.03 C 231.78 237.04 229.13 241.16 228.03 243.18 C 226.93 245.21 225.57 247.15 225.01 247.49 C 224.12 248.05 217.33 257.30 214.48 261.87 C 213.92 262.77 210.82 267.55 207.60 272.50 C 204.37 277.45 200.13 283.98 198.17 287.00 C 196.22 290.02 194.28 292.64 193.87 292.81 C 193.46 292.98 191.70 295.35 189.96 298.06 C 188.22 300.78 186.44 303.00 186.01 303.00 C 185.58 303.00 185.02 303.83 184.75 304.85 C 184.28 306.66 180.65 308.32 179.56 307.22Z"/></g>
<g fill="#0117ADFE">
<path d="M 294.67 361.33 C 294.30 360.97 294.00 359.03 294.00 357.03 C 294.00 355.03 293.61 352.97 293.13 352.45 C 292.65 351.93 291.98 350.31 291.64 348.85 C 291.10 346.56 291.82 345.46 296.98 340.68 C 300.27 337.64 303.75 334.88 304.73 334.55 C 305.70 334.22 307.36 332.77 308.41 331.33 C 310.05 329.07 310.11 328.55 308.87 327.60 C 308.08 327.00 307.58 325.77 307.76 324.87 C 307.98 323.81 307.21 323.02 305.55 322.60 C 303.55 322.10 303.00 321.34 303.00 319.05 C 303.00 317.45 302.32 315.47 301.50 314.64 C 300.68 313.82 300.00 312.66 300.00 312.07 C 300.00 310.56 297.02 310.73 296.90 312.25 C 296.80 313.44 295.53 309.36 294.33 304.00 C 294.02 302.62 293.09 300.96 292.26 300.30 C 291.29 299.53 290.92 298.01 291.21 296.05 C 291.59 293.41 291.35 293.00 289.36 293.00 C 287.76 293.00 287.23 292.56 287.62 291.55 C 288.54 289.15 287.15 287.85 284.94 289.03 C 283.87 289.60 283.00 289.87 283.00 289.62 C 283.00 289.37 286.49 287.04 290.75 284.44 C 315.72 269.22 323.16 265.06 326.54 264.43 C 330.04 263.77 330.27 263.87 329.75 265.86 C 329.37 267.30 329.65 268.00 330.59 268.00 C 331.37 268.00 332.00 268.69 332.00 269.53 C 332.00 270.37 332.79 271.36 333.75 271.73 C 335.69 272.46 338.00 274.51 338.00 275.49 C 338.00 275.83 337.55 275.84 337.00 275.50 C 336.45 275.16 336.00 275.39 336.00 276.01 C 336.00 276.70 336.82 276.88 338.13 276.46 C 339.39 276.06 340.01 276.17 339.66 276.75 C 339.31 277.31 340.14 277.50 341.68 277.21 C 343.16 276.93 344.05 277.11 343.72 277.64 C 343.41 278.15 344.03 278.57 345.11 278.57 C 346.27 278.57 347.24 277.75 347.50 276.54 C 348.62 271.15 348.89 270.95 348.42 275.85 C 346.78 292.94 332.35 321.26 313.42 344.50 C 306.40 353.12 296.39 364.40 299.00 360.75 C 299.90 359.48 299.93 359.00 299.09 359.00 C 298.46 359.00 297.68 359.68 297.36 360.50 C 296.75 362.10 295.75 362.41 294.67 361.33Z"/></g>
<g fill="#0159E0FE">
<path d="M 144.00 214.94 C 144.00 213.81 143.55 213.16 143.00 213.50 C 142.44 213.85 142.00 213.03 142.00 211.62 C 142.00 210.24 141.52 208.82 140.93 208.46 C 140.34 208.09 139.47 206.83 138.99 205.65 C 138.27 203.86 138.12 204.13 138.06 207.28 L 138.00 211.05 L 134.83 209.41 C 132.16 208.03 131.91 207.63 133.29 206.86 C 134.27 206.31 134.68 205.26 134.32 204.22 C 133.36 201.42 119.12 188.00 117.10 188.00 C 116.08 188.00 114.68 187.32 114.00 186.50 C 113.32 185.68 111.49 185.00 109.94 185.00 C 108.39 185.00 106.87 184.60 106.57 184.12 C 106.27 183.64 104.90 183.02 103.51 182.76 C 101.35 182.34 101.00 182.64 100.98 184.89 C 100.97 186.94 100.76 187.18 100.00 186.00 C 99.47 185.18 99.02 183.26 99.02 181.75 C 99.00 179.04 98.29 178.58 94.66 178.96 C 92.93 179.14 92.84 178.23 93.17 163.83 C 93.47 150.84 93.85 147.80 95.64 143.91 C 99.71 135.04 107.03 130.33 114.93 131.51 C 129.15 133.63 141.39 145.70 144.94 161.11 C 146.29 166.95 146.34 217.00 145.00 217.00 C 144.45 217.00 144.00 216.07 144.00 214.94Z"/></g>
<g fill="#0159E0FE">
<path d="M 181.57 308.11 C 181.27 307.63 181.92 306.99 183.01 306.71 C 184.11 306.42 185.00 305.47 185.00 304.59 C 185.00 303.72 185.40 303.00 185.90 303.00 C 186.39 303.00 188.22 300.78 189.96 298.06 C 191.70 295.35 193.46 292.98 193.87 292.81 C 194.28 292.64 196.22 290.02 198.17 287.00 C 200.13 283.98 204.37 277.45 207.60 272.50 C 210.82 267.55 213.92 262.77 214.48 261.87 C 217.33 257.30 224.12 248.05 225.01 247.49 C 225.57 247.15 226.93 245.21 228.03 243.18 C 229.13 241.16 231.78 237.04 233.93 234.03 C 236.08 231.01 237.58 228.13 237.27 227.62 C 236.95 227.11 237.20 227.00 237.81 227.38 C 238.43 227.77 239.51 227.16 240.21 226.04 C 240.91 224.92 241.82 224.00 242.24 224.00 C 243.77 224.00 271.59 241.49 274.25 244.12 C 277.31 247.15 277.75 250.48 275.52 253.67 C 274.71 254.83 264.92 261.40 253.77 268.27 C 221.71 288.02 192.78 305.56 189.30 307.35 C 185.79 309.16 182.42 309.49 181.57 308.11Z"/></g>
<g fill="#08E0F9FA">
<path d="M 105.88 434.06 C 105.81 433.48 105.69 432.66 105.62 432.25 C 105.55 431.84 104.44 430.02 103.16 428.21 C 101.87 426.41 101.06 424.29 101.36 423.52 C 101.70 422.61 101.41 422.29 100.54 422.62 C 99.33 423.09 98.38 421.51 97.54 417.63 C 97.41 417.01 97.05 415.82 96.73 415.00 C 95.72 412.33 94.97 407.64 94.49 401.00 C 94.23 397.43 93.82 391.80 93.56 388.50 C 93.31 385.20 93.64 379.38 94.30 375.58 C 95.52 368.52 97.60 365.79 98.18 370.47 C 98.70 374.68 100.47 373.85 100.81 369.25 C 100.98 366.91 101.54 365.00 102.06 365.00 C 102.58 365.00 103.04 366.91 103.10 369.25 C 103.18 372.76 103.33 373.06 103.94 371.00 C 104.40 369.44 104.84 372.90 105.09 380.15 C 105.42 389.43 105.86 392.19 107.25 393.73 C 109.17 395.85 109.79 406.00 108.00 406.00 C 106.63 406.00 106.74 411.64 108.19 415.64 C 109.15 418.29 109.10 419.44 107.96 421.57 C 106.66 424.00 106.73 424.36 108.77 426.02 C 111.39 428.13 111.67 429.19 109.38 428.32 C 108.08 427.82 107.91 428.14 108.49 429.97 C 109.03 431.68 108.90 432.05 107.94 431.46 C 107.03 430.90 106.84 431.15 107.29 432.30 C 107.63 433.20 107.48 434.20 106.96 434.53 C 106.43 434.85 105.94 434.64 105.88 434.06Z"/></g>
<g fill="#02096FFE">
<path d="M 343.66 277.74 C 344.06 277.09 343.33 276.89 341.68 277.21 C 340.14 277.50 339.31 277.31 339.66 276.75 C 340.01 276.17 339.39 276.06 338.13 276.46 C 336.82 276.88 336.00 276.70 336.00 276.01 C 336.00 275.39 336.45 275.16 337.00 275.50 C 337.55 275.84 338.00 275.83 338.00 275.49 C 338.00 274.51 335.69 272.46 333.75 271.73 C 332.79 271.36 332.00 270.37 332.00 269.53 C 332.00 268.69 331.37 268.00 330.59 268.00 C 329.65 268.00 329.37 267.30 329.75 265.86 C 330.27 263.86 330.05 263.77 326.40 264.44 L 322.50 265.16 L 328.50 261.26 C 336.67 255.94 340.65 251.12 342.75 243.97 C 343.71 240.69 344.79 238.00 345.14 238.00 C 345.50 238.00 346.57 241.20 347.53 245.10 C 348.87 250.58 349.16 254.88 348.78 263.92 C 348.28 276.14 347.66 278.41 344.76 278.64 C 343.80 278.71 343.31 278.31 343.66 277.74Z"/></g>
<g fill="#08E0F9FA">
<path d="M 413.08 276.93 C 413.04 276.62 413.77 273.92 414.72 270.93 C 415.93 267.12 416.41 262.37 416.35 255.00 C 416.27 245.64 415.93 243.72 413.20 237.28 C 407.78 224.51 401.07 216.17 388.51 206.65 C 384.10 203.31 378.23 198.76 375.45 196.54 C 372.67 194.32 365.60 188.69 359.74 184.04 C 353.88 179.39 349.28 175.39 349.51 175.15 C 350.27 174.40 380.96 197.12 396.21 209.73 C 414.18 224.59 422.48 246.20 417.53 265.22 C 416.14 270.57 413.26 278.15 413.08 276.93Z"/></g>
<g fill="#08E0F9FA">
<path d="M 179.00 200.65 C 179.00 192.70 179.29 191.05 180.93 189.56 C 182.24 188.37 183.59 188.04 185.18 188.53 C 188.04 189.40 191.12 192.00 190.49 193.02 C 190.23 193.43 190.92 194.01 192.01 194.29 C 194.73 195.00 194.52 196.16 191.00 199.84 C 189.35 201.57 188.00 203.39 188.00 203.88 C 188.00 204.38 186.89 205.06 185.53 205.40 C 184.17 205.74 182.58 206.92 181.99 208.01 C 179.86 212.00 179.00 209.89 179.00 200.65Z"/></g>
<g fill="#08E0F9FA">
<path d="M 194.22 58.61 C 190.77 56.80 184.70 54.30 180.72 53.05 C 176.75 51.80 172.42 50.36 171.09 49.84 C 168.10 48.67 137.21 48.62 135.64 49.78 C 134.61 50.54 133.44 50.62 131.25 50.06 C 130.84 49.95 132.97 49.17 136.00 48.33 C 144.08 46.06 164.48 46.06 174.00 48.34 C 182.17 50.28 198.67 57.65 200.87 60.33 C 202.84 62.72 201.35 62.34 194.22 58.61Z"/></g>
</svg>