<?xml version="1.0" encoding="UTF-8"?>
<svg xmlns="http://www.w3.org/2000/svg" width="878" height="277" viewBox="0 0 878 277" fill="none">
  <rect width="878" height="277" fill="#FF5E14"></rect>
  <path fill-rule="evenodd" clip-rule="evenodd" d="M234.122 125.414L237.418 128.573C243.464 134.369 243.464 143.851 237.418 149.647L207.971 177.873C201.924 183.669 192.032 183.669 185.986 177.873L172.738 165.175H206.654C211.288 165.175 215.496 163.361 218.54 160.443C221.587 157.522 223.477 153.488 223.477 149.049C223.477 144.607 221.587 140.573 218.54 137.655C215.493 134.735 211.288 132.924 206.654 132.924H187.296C186.228 132.924 185.248 132.5 184.535 131.817C183.823 131.134 183.381 130.198 183.381 129.17C183.381 128.143 183.823 127.207 184.535 126.524C185.248 125.841 186.224 125.417 187.296 125.417H234.122V125.414Z" fill="white"></path>
  <path fill-rule="evenodd" clip-rule="evenodd" d="M207.97 100.347L221.218 113.043H187.299C182.664 113.043 178.459 114.857 175.412 117.774C172.365 120.695 170.476 124.726 170.476 129.168C170.476 133.61 172.365 137.644 175.412 140.562C178.459 143.483 182.664 145.294 187.299 145.294H206.656C207.728 145.294 208.705 145.717 209.417 146.4C210.13 147.083 210.572 148.023 210.572 149.047C210.572 150.071 210.13 151.01 209.417 151.693C208.705 152.376 207.728 152.8 206.656 152.8H159.83L156.535 149.642C150.488 143.845 150.488 134.363 156.535 128.567L185.985 100.347C192.031 94.551 201.924 94.551 207.97 100.347Z" fill="white"></path>
  <path d="M264.109 164.162L265.856 152.808H288.372C289.119 152.808 289.669 152.607 290.026 152.204C290.379 151.805 290.64 151.058 290.805 149.966L292.052 141.881C292.093 141.652 292.115 141.335 292.115 140.935C292.115 139.902 291.575 139.387 290.493 139.387H273.842C272.137 139.387 270.9 138.887 270.13 137.88C269.361 136.877 268.976 135.46 268.976 133.621C268.976 132.932 269.039 132.103 269.164 131.127L271.473 116.072C272.013 112.629 272.926 110.081 274.218 108.416C275.506 106.754 277.522 105.922 280.267 105.922H306.524L304.841 117.02H282.452C281.788 117.02 281.307 117.221 281.018 117.62C280.725 118.023 280.496 118.739 280.331 119.77L279.145 127.426C279.103 127.654 279.071 127.856 279.052 128.029C279.03 128.2 279.02 128.374 279.02 128.545C279.02 129.405 279.478 129.834 280.391 129.834H297.294C299.04 129.834 300.296 130.35 301.066 131.383C301.836 132.417 302.22 133.85 302.22 135.685C302.22 136.432 302.157 137.234 302.033 138.094L299.6 154.009C299.059 157.451 298.143 160.003 296.855 161.665C295.566 163.33 293.569 164.159 290.869 164.159H264.113L264.109 164.162Z" fill="white"></path>
  <path d="M316.252 164.165L317.811 153.841H328.288C328.911 153.841 329.357 153.683 329.63 153.369C329.901 153.055 330.117 152.408 330.285 151.433L333.03 133.798C333.072 133.511 333.094 133.139 333.094 132.679C333.094 132.164 333.002 131.804 332.814 131.603C332.626 131.402 332.283 131.301 331.784 131.301H318.186L310.266 182.4H301.535L311.077 120.633H337.77C339.599 120.633 340.887 121.063 341.637 121.922C342.388 122.782 342.76 124.102 342.76 125.88C342.76 126.971 342.677 128.06 342.512 129.148L338.457 155.643C337.999 158.625 337.156 160.793 335.931 162.137C334.703 163.485 333.094 164.159 331.097 164.159H316.252V164.165Z" fill="white"></path>
  <path d="M348.803 164.167C347.015 164.167 345.737 163.752 344.967 162.92C344.197 162.09 343.812 160.782 343.812 159.005C343.812 158.203 343.914 157.084 344.124 155.651L348.18 129.156C348.638 126.232 349.395 124.08 350.457 122.705C351.516 121.33 353.189 120.641 355.476 120.641H376.806C378.387 120.641 379.519 121.058 380.206 121.888C380.893 122.72 381.237 123.967 381.237 125.629C381.237 126.662 381.154 127.723 380.988 128.812L378.368 145.931H357.35L358.409 138.705H371.131L372.067 132.854C372.108 132.568 372.13 132.196 372.13 131.735C372.13 131.275 372.038 130.961 371.85 130.791C371.663 130.62 371.319 130.531 370.82 130.531H358.285C357.579 130.531 357.098 130.69 356.85 131.004C356.602 131.321 356.392 131.964 356.227 132.94L353.294 151.693C353.253 151.98 353.221 152.224 353.202 152.425C353.18 152.627 353.17 152.812 353.17 152.983C353.17 153.498 353.272 153.843 353.482 154.017C353.689 154.187 354.064 154.276 354.605 154.276H375.871L374.373 164.169H348.803V164.167Z" fill="white"></path>
  <path d="M387.346 164.167C385.558 164.167 384.28 163.752 383.51 162.92C382.74 162.09 382.355 160.782 382.355 159.005C382.355 158.203 382.457 157.084 382.667 155.651L386.723 129.156C387.181 126.232 387.938 124.08 389 122.705C390.059 121.33 391.732 120.641 394.019 120.641H415.349C416.93 120.641 418.062 121.058 418.749 121.888C419.436 122.72 419.78 123.967 419.78 125.629C419.78 126.662 419.697 127.723 419.531 128.812L416.911 145.931H395.893L396.952 138.705H409.674L410.61 132.854C410.651 132.568 410.673 132.196 410.673 131.735C410.673 131.275 410.581 130.961 410.393 130.791C410.206 130.62 409.862 130.531 409.363 130.531H396.828C396.122 130.531 395.641 130.69 395.393 131.004C395.145 131.321 394.935 131.964 394.77 132.94L391.837 151.693C391.796 151.98 391.764 152.224 391.745 152.425C391.723 152.627 391.713 152.812 391.713 152.983C391.713 153.498 391.815 153.843 392.025 154.017C392.232 154.187 392.607 154.276 393.148 154.276H414.414L412.916 164.169H387.346V164.167Z" fill="white"></path>
  <path d="M426.138 164.163C424.392 164.163 423.132 163.748 422.366 162.916C421.596 162.087 421.211 160.779 421.211 159.001C421.211 158.199 421.313 157.08 421.523 155.647L425.578 129.152C426.036 126.229 426.857 124.076 428.043 122.701C429.229 121.326 430.82 120.637 432.814 120.637H447.719L446.097 131.046H435.68C435.015 131.046 434.548 131.204 434.277 131.518C434.007 131.835 433.787 132.479 433.622 133.454L430.941 151.089C430.858 151.662 430.817 152.034 430.817 152.208C430.817 153.068 431.294 153.498 432.251 153.498H445.785L453.644 102.398H462.439L452.961 164.166H426.144L426.138 164.163Z" fill="white"></path>
  <path d="M476.781 164.162L478.527 152.808H501.044C501.791 152.808 502.341 152.607 502.698 152.204C503.051 151.805 503.311 151.058 503.477 149.966L504.724 141.881C504.765 141.652 504.787 141.335 504.787 140.935C504.787 139.902 504.247 139.387 503.165 139.387H486.514C484.809 139.387 483.572 138.887 482.802 137.88C482.033 136.877 481.648 135.46 481.648 133.621C481.648 132.932 481.711 132.103 481.835 131.127L484.145 116.072C484.685 112.629 485.598 110.081 486.89 108.416C488.178 106.754 490.194 105.922 492.939 105.922H519.196L517.513 117.02H495.124C494.46 117.02 493.979 117.221 493.69 117.62C493.397 118.023 493.168 118.739 493.003 119.77L491.816 127.426C491.775 127.654 491.743 127.856 491.724 128.029C491.702 128.2 491.692 128.374 491.692 128.545C491.692 129.405 492.15 129.834 493.063 129.834H509.965C511.712 129.834 512.968 130.35 513.738 131.383C514.507 132.417 514.892 133.85 514.892 135.685C514.892 136.432 514.829 137.234 514.705 138.094L512.271 154.009C511.731 157.451 510.815 160.003 509.527 161.665C508.238 163.33 506.241 164.159 503.54 164.159H476.784L476.781 164.162Z" fill="white"></path>
  <path d="M517.32 164.166L523.993 120.637H532.724L526.051 164.166H517.32ZM524.804 115.475L526.799 102.398H535.593L533.599 115.475H524.804Z" fill="white"></path>
  <path d="M530.605 182.402L532.228 171.993H553.309C554.015 171.993 554.505 171.822 554.776 171.478C555.046 171.133 555.262 170.475 555.431 169.499L561.356 131.046H547.759C547.053 131.046 546.563 131.217 546.293 131.562C546.022 131.906 545.825 132.537 545.701 133.455L542.832 152.038C542.791 152.325 542.768 152.642 542.768 152.983C542.768 153.901 543.246 154.358 544.203 154.358H554.68L553.182 164.167H538.214C536.468 164.167 535.208 163.752 534.441 162.92C533.672 162.09 533.287 160.782 533.287 159.005C533.287 158.203 533.389 157.084 533.599 155.651L537.654 129.156C538.112 126.232 538.869 124.08 539.931 122.705C540.99 121.33 542.644 120.641 544.89 120.641H571.706L563.475 173.889C563.017 176.813 562.26 178.966 561.197 180.341C560.138 181.716 558.462 182.405 556.178 182.405H530.609L530.605 182.402Z" fill="white"></path>
  <path d="M596.277 164.162L600.956 133.45C601.039 132.877 601.08 132.533 601.08 132.417C601.08 131.499 600.559 131.042 599.522 131.042H586.487C585.864 131.042 585.406 131.2 585.116 131.514C584.824 131.831 584.595 132.475 584.429 133.45L579.751 164.162H571.02L577.693 120.633H586.112L585.364 125.365C586.863 122.212 588.92 120.633 591.538 120.633H605.695C607.4 120.633 608.638 121.035 609.407 121.837C610.177 122.642 610.562 123.987 610.562 125.88C610.562 126.972 610.479 128.06 610.314 129.148L604.951 164.162H596.281H596.277Z" fill="white"></path>
  <path d="M616.918 164.164C615.337 164.164 614.195 163.749 613.489 162.917C612.783 162.087 612.43 160.837 612.43 159.176C612.43 158.374 612.532 157.313 612.741 155.992L614.3 145.669C614.548 144.065 614.841 142.715 615.175 141.626C615.505 140.538 615.922 139.678 616.421 139.047C616.921 138.416 617.522 137.97 618.231 137.714C618.937 137.455 619.79 137.327 620.789 137.327H636.816L635.693 144.727H624.217C623.635 144.727 623.219 144.87 622.971 145.157C622.722 145.443 622.535 146.047 622.411 146.965L621.724 151.523C621.682 151.809 621.651 152.038 621.631 152.212C621.609 152.383 621.6 152.556 621.6 152.727C621.6 153.474 621.994 153.846 622.786 153.846H637.379L640.684 132.513C640.725 132.284 640.747 131.967 640.747 131.568C640.747 131.11 640.642 130.751 640.436 130.492C640.226 130.232 639.831 130.104 639.249 130.104H617.856L619.29 120.641H645.111C646.94 120.641 648.228 121.058 648.979 121.888C649.727 122.72 650.102 124.025 650.102 125.802C650.102 126.607 649.997 127.723 649.79 129.156L644.428 164.17H616.924L616.918 164.164Z" fill="white"></path>
  <path d="M648.602 182.402L650.224 171.993H671.305C672.011 171.993 672.501 171.822 672.772 171.478C673.042 171.133 673.258 170.475 673.427 169.499L679.352 131.046H665.755C665.049 131.046 664.559 131.217 664.289 131.562C664.018 131.906 663.821 132.537 663.697 133.455L660.828 152.038C660.787 152.325 660.765 152.642 660.765 152.983C660.765 153.901 661.242 154.358 662.199 154.358H672.676L671.178 164.167H656.21C654.464 164.167 653.204 163.752 652.437 162.92C651.668 162.09 651.283 160.782 651.283 159.005C651.283 158.203 651.385 157.084 651.595 155.651L655.65 129.156C656.108 126.232 656.865 124.08 657.927 122.705C658.987 121.33 660.64 120.641 662.886 120.641H689.702L681.471 173.889C681.013 176.813 680.256 178.966 679.193 180.341C678.131 181.716 676.458 182.405 674.174 182.405H648.605L648.602 182.402Z" fill="white"></path>
  <path d="M694.565 164.167C692.777 164.167 691.499 163.752 690.729 162.92C689.959 162.09 689.574 160.782 689.574 159.005C689.574 158.203 689.676 157.084 689.886 155.651L693.941 129.156C694.399 126.232 695.156 124.08 696.219 122.705C697.278 121.33 698.951 120.641 701.238 120.641H722.568C724.148 120.641 725.281 121.058 725.968 121.888C726.655 122.72 726.998 123.967 726.998 125.629C726.998 126.662 726.916 127.723 726.75 128.812L724.129 145.931H703.111L704.17 138.705H716.893L717.828 132.854C717.87 132.568 717.892 132.196 717.892 131.735C717.892 131.275 717.8 130.961 717.612 130.791C717.424 130.62 717.081 130.531 716.582 130.531H704.046C703.34 130.531 702.86 130.69 702.612 131.004C702.364 131.321 702.154 131.964 701.988 132.94L699.056 151.693C699.015 151.98 698.983 152.224 698.964 152.425C698.941 152.627 698.932 152.812 698.932 152.983C698.932 153.498 699.034 153.843 699.244 154.017C699.45 154.187 699.826 154.276 700.366 154.276H721.632L720.134 164.169H694.565V164.167Z" fill="white"></path>
</svg>
