<svg width="2537" height="1512" viewBox="0 0 2537 1512" fill="none" xmlns="http://www.w3.org/2000/svg">
<g clip-path="url(#clip0_26_78)">
<mask id="mask0_26_78" style="mask-type:luminance" maskUnits="userSpaceOnUse" x="0" y="0" width="2537" height="1572">
<path d="M2537 0V1512H0V0H2537Z" fill="white"/>
<path d="M2537 0V1512H0V0H2537Z" stroke="#080808"/>
<path d="M2185 1305H392V1572H2185V1305Z" fill="black"/>
</mask>
<g mask="url(#mask0_26_78)">
<path d="M2394.58 84H142.988C107.959 84 79.5625 114.086 79.5625 151.2V1360.8C79.5625 1397.91 107.959 1428 142.988 1428H2394.58C2429.6 1428 2458 1397.91 2458 1360.8V151.2C2458 114.086 2429.6 84 2394.58 84Z" stroke="#2C3E50" stroke-width="200" stroke-linecap="round"/>
</g>
<path d="M703.984 966.081C689.17 992.276 657.82 1000.3 633.983 984.013C610.15 967.73 602.854 933.271 617.668 907.075C655.569 840.361 725.151 778.46 798.871 732.284C882.239 680.053 974.238 646.529 1033.58 648.05C1061.58 648.768 1083.75 674.312 1083.09 705.091C1082.44 735.866 1059.2 760.235 1031.2 759.513C989.29 758.436 917.772 786.218 848.981 829.318C788.405 867.265 732.387 916.088 703.984 966.081Z" fill="#FF6B6B"/>
<path d="M952.192 1412C1027.73 1412 1088.97 1325.96 1088.97 1219.82C1088.97 1113.68 1027.73 1027.64 952.192 1027.64C876.65 1027.64 815.412 1113.68 815.412 1219.82C815.412 1325.96 876.65 1412 952.192 1412Z" fill="#4ECDC4"/>
<path d="M1406.75 1216.24C1390.2 1241.65 1378.14 1264.15 1373.7 1281.67C1362.59 1325.67 1401.06 1325.1 1428.14 1308.21C1535.39 1241.39 1683.65 1251.2 1792.38 1308.23C1853.48 1340.27 1858.15 1292.49 1823.35 1243.76C1687.59 1053.62 1557.08 1047.75 1406.75 1216.24Z" fill="#95E1D3"/>
<path d="M1462.1 945.675C1431.34 949.798 1403.34 925.761 1399.59 891.954C1395.84 858.146 1417.71 827.371 1448.46 823.248C1533.47 811.496 1618.42 823.803 1696.77 855.726L1696.97 855.81C1777.15 888.403 1850.96 941.783 1911.31 1010.98C1932.82 1035.56 1932.12 1074.68 1909.76 1098.32C1887.4 1121.97 1851.81 1121.2 1830.3 1096.62C1781.9 1041.14 1722.5 998.235 1657.82 971.87C1595.43 946.397 1528.39 936.511 1462.1 945.675Z" fill="#F38181"/>
</g>
<defs>
<clipPath id="clip0_26_78">
<rect width="2537" height="1512" rx="167" fill="white"/>
</clipPath>
</defs>
</svg>
