<?xml version="1.0" encoding="UTF-8" standalone="no"?>
<svg
   id="Ebene_1"
   data-name="Ebene 1"
   viewBox="0 0 142.80191 111.63189"
   version="1.1"
   sodipodi:docname="GarlicSignage-Logo_schwarz.svg"
   inkscape:version="1.2 (dc2aeda, 2022-05-15)"
   inkscape:export-filename="GarlicSignage-Logo_schwarz.jpg"
   inkscape:export-xdpi="430.24634"
   inkscape:export-ydpi="430.24634"
   xmlns:inkscape="http://www.inkscape.org/namespaces/inkscape"
   xmlns:sodipodi="http://sodipodi.sourceforge.net/DTD/sodipodi-0.dtd"
   xmlns="http://www.w3.org/2000/svg"
   xmlns:svg="http://www.w3.org/2000/svg">
  <sodipodi:namedview
     id="namedview58"
     pagecolor="#ffffff"
     bordercolor="#000000"
     borderopacity="0.25"
     inkscape:showpageshadow="2"
     inkscape:pageopacity="0.0"
     inkscape:pagecheckerboard="0"
     inkscape:deskcolor="#d1d1d1"
     showgrid="false"
     inkscape:zoom="3.8434977"
     inkscape:cx="81.956599"
     inkscape:cy="53.987284"
     inkscape:window-width="1621"
     inkscape:window-height="981"
     inkscape:window-x="51"
     inkscape:window-y="33"
     inkscape:window-maximized="0"
     inkscape:current-layer="Ebene_1" />
  <defs
     id="defs7">
    <style
       id="style2">.cls-1,.cls-4,.cls-5,.cls-6,.cls-7{fill:none;}.cls-2{clip-path:url(#clip-path);}.cls-3{fill:#1d1d1b;}.cls-4,.cls-5,.cls-6,.cls-7{stroke:#1d1d1b;stroke-linejoin:round;}.cls-4,.cls-6,.cls-7{stroke-linecap:round;}.cls-4{stroke-width:0.28px;}.cls-5,.cls-6{stroke-width:1.121px;}.cls-7{stroke-width:0.561px;}</style>
    <clipPath
       id="clip-path">
      <rect
         class="cls-1"
         x="-15.86665"
         y="19.37695"
         width="174.49699"
         height="79.753"
         id="rect4" />
    </clipPath>
  </defs>
  <g
     class="cls-2"
     clip-path="url(#clip-path)"
     id="g13"
     transform="matrix(1.2697907,0,0,1.2697907,-19.848559,-9.634908)">
    <path
       class="cls-3"
       d="m 66.51725,36.36535 c 0,0 -13.657,-0.636 -17.76,10.491 0,0 -3.986,12.109 9.395,18.799 a 31.43568,31.43568 0 0 0 27.091,-0.636 16.99094,16.99094 0 0 0 6.706,-6.401 15.09926,15.09926 0 0 0 -0.666,-16.328 27.83521,27.83521 0 0 0 -6.358,-5.723 53.35283,53.35283 0 0 0 -5.15,-3.179 c -2.695,-1.452 -5.927,-2.767 -7.377,-4.175 0,0 -3.919,-3.077 -3.497,-9.697 0,0 -2.891,7.037 2.832,12.283 a 26.6798,26.6798 0 0 0 5.976,4.037 c 0.16,0.083 1.876,1.081 3.274,2.003 3.527,2.324 8.393,5.404 8.423,11.719 a 12.409,12.409 0 0 1 -2.573,7.991 16.07549,16.07549 0 0 1 -7.185,5.721 c 0,0 -8.71,3.561 -17.264,0.116 0,0 -10.774,-4.248 -9.63,-15.248 a 9.95713,9.95713 0 0 1 2.035,-4.808 19.07247,19.07247 0 0 1 11.728,-6.965"
       id="path9" />
    <path
       class="cls-4"
       d="m 66.51725,36.36535 c 0,0 -13.657,-0.636 -17.76,10.491 0,0 -3.986,12.109 9.395,18.799 a 31.43568,31.43568 0 0 0 27.091,-0.636 16.99094,16.99094 0 0 0 6.706,-6.401 15.09926,15.09926 0 0 0 -0.666,-16.328 27.83521,27.83521 0 0 0 -6.358,-5.723 53.35283,53.35283 0 0 0 -5.15,-3.179 c -2.695,-1.452 -5.927,-2.767 -7.377,-4.175 0,0 -3.919,-3.077 -3.497,-9.697 0,0 -2.891,7.037 2.832,12.283 a 26.6798,26.6798 0 0 0 5.976,4.037 c 0.16,0.083 1.876,1.081 3.274,2.003 3.527,2.324 8.393,5.404 8.423,11.719 a 12.409,12.409 0 0 1 -2.573,7.991 16.07549,16.07549 0 0 1 -7.185,5.721 c 0,0 -8.71,3.561 -17.264,0.116 0,0 -10.774,-4.248 -9.63,-15.248 a 9.95713,9.95713 0 0 1 2.035,-4.808 19.07247,19.07247 0 0 1 11.728,-6.965 z"
       id="path11" />
  </g>
  <rect
     class="cls-3"
     x="74.017349"
     y="49.336632"
     width="11.241459"
     height="2.1649933"
     id="rect15"
     style="stroke-width:1.26979" />
  <rect
     class="cls-5"
     x="74.017349"
     y="49.336632"
     width="11.241459"
     height="2.1649933"
     id="rect17" />
  <g
     class="cls-2"
     clip-path="url(#clip-path)"
     id="g31"
     transform="matrix(1.2697907,0,0,1.2697907,-19.848559,-9.634908)">
    <path
       class="cls-3"
       d="m 48.93455,36.69435 c 0,0 -9.392,5.143 -9.348,15.292 a 17.195,17.195 0 0 0 10.892,15.866 c 0,0 -9.209,-6.303 -8.83,-16.655 0,0 -0.01,-7.663 7.286,-14.503"
       id="path19" />
    <path
       class="cls-6"
       d="m 48.93455,36.69435 c 0,0 -9.392,5.143 -9.348,15.292 a 17.195,17.195 0 0 0 10.892,15.866 c 0,0 -9.209,-6.303 -8.83,-16.655 0,0 -0.01001,-7.663 7.286,-14.503 z"
       id="path21" />
    <path
       class="cls-3"
       d="m 93.71764,36.66415 c 0,0 9.254,5.387 8.944,15.531 a 17.19633,17.19633 0 0 1 -11.303,15.576 c 0,0 9.371,-6.06 9.263,-16.419 0,0 0.21,-7.659 -6.904,-14.688"
       id="path23" />
    <path
       class="cls-6"
       d="m 93.71764,36.66415 c 0,0 9.254,5.387 8.944,15.531 a 17.19633,17.19633 0 0 1 -11.303,15.576 c 0,0 9.371,-6.06 9.263,-16.419 0,0 0.21,-7.659 -6.904,-14.688 z"
       id="path25" />
    <path
       class="cls-3"
       d="m 70.66884,57.61925 c 0,0 -5.86,-0.459 -9.202,-4.312 0,0 -2.224,-2.092 -2.731,-7.209 -0.092,-0.923 -2.647,5.589 2.847,10.522 a 13.51156,13.51156 0 0 0 9.074,3.366 c 0,0 0,-0.233 0.012,-2.367"
       id="path27" />
    <path
       class="cls-7"
       d="m 70.66884,57.61925 c 0,0 -5.86,-0.459 -9.202,-4.312 0,0 -2.224,-2.092 -2.731,-7.209 -0.092,-0.923 -2.647,5.589 2.847,10.522 a 13.51156,13.51156 0 0 0 9.074,3.366 c 0,0 0,-0.233 0.012,-2.367 z"
       id="path29" />
  </g>
  <text
     xml:space="preserve"
     style="font-size:13.6168px;font-family:Inconsolata;-inkscape-font-specification:'Inconsolata, Normal ';letter-spacing:0.851053px;fill:#007a50;stroke:#007a50;stroke-width:0.851053"
     x="21.182974"
     y="94.484436"
     id="text272"><tspan
       sodipodi:role="line"
       id="tspan270"
       x="21.182974"
       y="94.484436"
       style="font-style:normal;font-variant:normal;font-weight:300;font-stretch:normal;font-size:13.6168px;font-family:Inconsolata;-inkscape-font-specification:'Inconsolata Light';fill:#000000;fill-opacity:1;stroke:#000000;stroke-width:0.851053;stroke-opacity:1">GarlicSignage</tspan></text>
</svg>
